<svg width="373" height="373" viewBox="0 0 373 373" fill="none" xmlns="http://www.w3.org/2000/svg">
<g clip-path="url(#clip0_27_24)">
<rect width="373" height="373" rx="38" fill="white"/>
<g filter="url(#filter0_f_27_24)">
<rect width="399.566" height="198.412" transform="matrix(0.992546 0.121869 -0.239385 0.970925 -1.92584 247.211)" fill="url(#paint0_linear_27_24)"/>
</g>
<g filter="url(#filter1_f_27_24)">
<rect width="420.236" height="198.41" transform="matrix(0.992546 0.121869 -0.239385 0.970925 8.4964 -116)" fill="url(#paint1_linear_27_24)"/>
</g>
<g filter="url(#filter2_d_27_24)">
<path d="M228.421 229.265C224.943 232.189 221.393 234.756 217.771 236.969C214.149 239.181 210.227 241.01 206.006 242.456C201.913 243.802 197.477 244.644 192.699 244.981C187.907 245.432 182.609 245.302 176.805 244.589C168.041 243.513 160.099 240.921 152.979 236.812C145.858 232.702 139.902 227.581 135.11 221.447C130.332 215.2 126.867 208.132 124.717 200.243C122.566 192.354 122.015 184.141 123.063 175.605L123.105 175.264C124.153 166.728 126.668 158.95 130.649 151.929C134.644 144.795 139.716 138.775 145.863 133.869C152.025 128.849 159.114 125.214 167.131 122.964C175.161 120.599 183.786 119.983 193.005 121.115C198.582 121.8 203.59 122.877 208.031 124.346C212.586 125.83 216.643 127.599 220.203 129.653C223.763 131.708 226.997 134.069 229.904 136.736C232.811 139.404 235.463 142.271 237.859 145.338L218.76 162.575C214.611 157.791 210.236 153.903 205.636 150.912C201.149 147.936 195.89 146.077 189.858 145.336C184.85 144.721 180.065 145.116 175.502 146.519C171.054 147.937 167.083 150.165 163.591 153.202C160.099 156.239 157.22 159.929 154.954 164.271C152.702 168.501 151.261 173.176 150.632 178.297L150.59 178.639C149.962 183.76 150.221 188.702 151.369 193.464C152.518 198.226 154.362 202.496 156.902 206.274C159.555 210.066 162.862 213.244 166.821 215.81C170.909 218.276 175.513 219.823 180.635 220.452C187.463 221.29 193.365 220.744 198.338 218.813C203.426 216.896 208.568 214.062 213.766 210.31L228.421 229.265Z" fill="#2D384E"/>
<path d="M354.459 244.741C350.98 247.664 347.43 250.232 343.808 252.444C340.186 254.657 336.265 256.486 332.044 257.931C327.951 259.277 323.515 260.119 318.737 260.457C313.945 260.908 308.647 260.777 302.842 260.065C294.079 258.989 286.137 256.396 279.017 252.287C271.896 248.178 265.94 243.057 261.148 236.923C256.37 230.675 252.905 223.607 250.755 215.718C248.604 207.829 248.053 199.617 249.101 191.081L249.143 190.74C250.191 182.204 252.705 174.425 256.687 167.405C260.682 160.271 265.753 154.251 271.901 149.345C278.063 144.325 285.152 140.69 293.169 138.439C301.199 136.075 309.824 135.459 319.043 136.591C324.62 137.275 329.628 138.352 334.069 139.822C338.624 141.305 342.681 143.074 346.241 145.129C349.801 147.183 353.035 149.544 355.942 152.212C358.849 154.879 361.501 157.747 363.897 160.813L344.798 178.05C340.649 173.266 336.274 169.379 331.674 166.388C327.187 163.411 321.928 161.552 315.896 160.812C310.888 160.197 306.103 160.591 301.54 161.995C297.092 163.413 293.121 165.64 289.629 168.677C286.137 171.714 283.258 175.404 280.992 179.747C278.74 183.976 277.299 188.651 276.67 193.773L276.628 194.114C275.999 199.236 276.259 204.178 277.407 208.94C278.556 213.702 280.4 217.972 282.939 221.749C285.593 225.541 288.9 228.72 292.859 231.285C296.947 233.751 301.551 235.299 306.673 235.927C313.501 236.766 319.402 236.22 324.376 234.289C329.464 232.372 334.606 229.537 339.803 225.786L354.459 244.741Z" fill="#2D384E"/>
<path d="M228.421 229.265C224.943 232.189 221.393 234.756 217.771 236.969C214.149 239.181 210.227 241.01 206.006 242.456C201.913 243.802 197.477 244.644 192.699 244.981C187.907 245.432 182.609 245.302 176.805 244.589C168.041 243.513 160.099 240.921 152.979 236.812C145.858 232.702 139.902 227.581 135.11 221.447C130.332 215.2 126.867 208.132 124.717 200.243C122.566 192.354 122.015 184.141 123.063 175.605L123.105 175.264C124.153 166.728 126.668 158.95 130.649 151.929C134.644 144.795 139.716 138.775 145.863 133.869C152.025 128.849 159.114 125.214 167.131 122.964C175.161 120.599 183.786 119.983 193.005 121.115C198.582 121.8 203.59 122.877 208.031 124.346C212.586 125.83 216.643 127.599 220.203 129.653C223.763 131.708 226.997 134.069 229.904 136.736C232.811 139.404 235.463 142.271 237.859 145.338L218.76 162.575C214.611 157.791 210.236 153.903 205.636 150.912C201.149 147.936 195.89 146.077 189.858 145.336C184.85 144.721 180.065 145.116 175.502 146.519C171.054 147.937 167.083 150.165 163.591 153.202C160.099 156.239 157.22 159.929 154.954 164.271C152.702 168.501 151.261 173.176 150.632 178.297L150.59 178.639C149.962 183.76 150.221 188.702 151.369 193.464C152.518 198.226 154.362 202.496 156.902 206.274C159.555 210.066 162.862 213.244 166.821 215.81C170.909 218.276 175.513 219.823 180.635 220.452C187.463 221.29 193.365 220.744 198.338 218.813C203.426 216.896 208.568 214.062 213.766 210.31L228.421 229.265Z" stroke="#646464" stroke-width="3"/>
<path d="M354.459 244.741C350.98 247.664 347.43 250.232 343.808 252.444C340.186 254.657 336.265 256.486 332.044 257.931C327.951 259.277 323.515 260.119 318.737 260.457C313.945 260.908 308.647 260.777 302.842 260.065C294.079 258.989 286.137 256.396 279.017 252.287C271.896 248.178 265.94 243.057 261.148 236.923C256.37 230.675 252.905 223.607 250.755 215.718C248.604 207.829 248.053 199.617 249.101 191.081L249.143 190.74C250.191 182.204 252.705 174.425 256.687 167.405C260.682 160.271 265.753 154.251 271.901 149.345C278.063 144.325 285.152 140.69 293.169 138.439C301.199 136.075 309.824 135.459 319.043 136.591C324.62 137.275 329.628 138.352 334.069 139.822C338.624 141.305 342.681 143.074 346.241 145.129C349.801 147.183 353.035 149.544 355.942 152.212C358.849 154.879 361.501 157.747 363.897 160.813L344.798 178.05C340.649 173.266 336.274 169.379 331.674 166.388C327.187 163.411 321.928 161.552 315.896 160.812C310.888 160.197 306.103 160.591 301.54 161.995C297.092 163.413 293.121 165.64 289.629 168.677C286.137 171.714 283.258 175.404 280.992 179.747C278.74 183.976 277.299 188.651 276.67 193.773L276.628 194.114C275.999 199.236 276.259 204.178 277.407 208.94C278.556 213.702 280.4 217.972 282.939 221.749C285.593 225.541 288.9 228.72 292.859 231.285C296.947 233.751 301.551 235.299 306.673 235.927C313.501 236.766 319.402 236.22 324.376 234.289C329.464 232.372 334.606 229.537 339.803 225.786L354.459 244.741Z" stroke="#646464" stroke-width="3"/>
</g>
<g filter="url(#filter3_d_27_24)">
<path d="M101.233 233.231L15.3621 222.687L30.0352 103.184L56.3258 106.412L44.5873 202.015L104.168 209.33L101.233 233.231Z" fill="#395168"/>
<path d="M101.233 233.231L15.3621 222.687L30.0352 103.184L56.3258 106.412L44.5873 202.015L104.168 209.33L101.233 233.231Z" stroke="#646464" stroke-width="3"/>
</g>
</g>
<defs>
<filter id="filter0_f_27_24" x="-53.4227" y="243.211" width="452.084" height="249.338" filterUnits="userSpaceOnUse" color-interpolation-filters="sRGB">
<feFlood flood-opacity="0" result="BackgroundImageFix"/>
<feBlend mode="normal" in="SourceGraphic" in2="BackgroundImageFix" result="shape"/>
<feGaussianBlur stdDeviation="2" result="effect1_foregroundBlur_27_24"/>
</filter>
<filter id="filter1_f_27_24" x="-42.9999" y="-120" width="472.6" height="251.855" filterUnits="userSpaceOnUse" color-interpolation-filters="sRGB">
<feFlood flood-opacity="0" result="BackgroundImageFix"/>
<feBlend mode="normal" in="SourceGraphic" in2="BackgroundImageFix" result="shape"/>
<feGaussianBlur stdDeviation="2" result="effect1_foregroundBlur_27_24"/>
</filter>
<filter id="filter2_d_27_24" x="116.348" y="117.365" width="256.292" height="154.554" filterUnits="userSpaceOnUse" color-interpolation-filters="sRGB">
<feFlood flood-opacity="0" result="BackgroundImageFix"/>
<feColorMatrix in="SourceAlpha" type="matrix" values="0 0 0 0 0 0 0 0 0 0 0 0 0 0 0 0 0 0 127 0" result="hardAlpha"/>
<feOffset dx="1" dy="4"/>
<feGaussianBlur stdDeviation="2.85"/>
<feComposite in2="hardAlpha" operator="out"/>
<feColorMatrix type="matrix" values="0 0 0 0 0 0 0 0 0 0 0 0 0 0 0 0 0 0 0.5 0"/>
<feBlend mode="normal" in2="BackgroundImageFix" result="effect1_dropShadow_27_24"/>
<feBlend mode="normal" in="SourceGraphic" in2="effect1_dropShadow_27_24" result="shape"/>
</filter>
<filter id="filter3_d_27_24" x="8.99049" y="99.8128" width="103.549" height="144.789" filterUnits="userSpaceOnUse" color-interpolation-filters="sRGB">
<feFlood flood-opacity="0" result="BackgroundImageFix"/>
<feColorMatrix in="SourceAlpha" type="matrix" values="0 0 0 0 0 0 0 0 0 0 0 0 0 0 0 0 0 0 127 0" result="hardAlpha"/>
<feOffset dx="1" dy="4"/>
<feGaussianBlur stdDeviation="2.85"/>
<feComposite in2="hardAlpha" operator="out"/>
<feColorMatrix type="matrix" values="0 0 0 0 0 0 0 0 0 0 0 0 0 0 0 0 0 0 0.5 0"/>
<feBlend mode="normal" in2="BackgroundImageFix" result="effect1_dropShadow_27_24"/>
<feBlend mode="normal" in="SourceGraphic" in2="effect1_dropShadow_27_24" result="shape"/>
</filter>
<linearGradient id="paint0_linear_27_24" x1="0" y1="99.2062" x2="399.566" y2="99.2062" gradientUnits="userSpaceOnUse">
<stop stop-color="#A1FFBC"/>
<stop offset="1" stop-color="#EEFFBF"/>
</linearGradient>
<linearGradient id="paint1_linear_27_24" x1="0" y1="99.205" x2="420.236" y2="99.205" gradientUnits="userSpaceOnUse">
<stop stop-color="#A1FFBC"/>
<stop offset="1" stop-color="#EEFFBF"/>
</linearGradient>
<clipPath id="clip0_27_24">
<rect width="373" height="373" rx="38" fill="white"/>
</clipPath>
</defs>
</svg>
